<svg width="248" height="186" viewBox="0 0 248 186" fill="none" xmlns="http://www.w3.org/2000/svg">
<path d="M29.8162 140.172H12.9798V150.964H27.0533C28.358 150.964 29.327 151.262 29.9601 151.857C30.6125 152.432 30.9386 153.209 30.9386 154.188C30.9386 155.166 30.6125 155.943 29.9601 156.519C29.3078 157.095 28.3388 157.382 27.0533 157.382H12.9798V171.283C12.9798 173.048 12.5769 174.363 11.7711 175.226C10.9844 176.07 9.96752 176.492 8.72038 176.492C7.45405 176.492 6.41797 176.061 5.61213 175.197C4.82547 174.334 4.43214 173.029 4.43214 171.283V138.819C4.43214 137.591 4.61441 136.594 4.97896 135.826C5.34351 135.039 5.90952 134.473 6.67699 134.128C7.46365 133.764 8.46136 133.581 9.67012 133.581H29.8162C31.1785 133.581 32.1858 133.888 32.8381 134.502C33.5097 135.097 33.8454 135.884 33.8454 136.862C33.8454 137.86 33.5097 138.666 32.8381 139.28C32.1858 139.875 31.1785 140.172 29.8162 140.172ZM46.7389 149.007V171.715C46.7389 173.288 46.3648 174.478 45.6165 175.284C44.8682 176.09 43.9185 176.492 42.7673 176.492C41.6161 176.492 40.6759 176.08 39.9468 175.255C39.2369 174.43 38.882 173.25 38.882 171.715V149.238C38.882 147.684 39.2369 146.513 39.9468 145.726C40.6759 144.94 41.6161 144.547 42.7673 144.547C43.9185 144.547 44.8682 144.94 45.6165 145.726C46.3648 146.513 46.7389 147.607 46.7389 149.007ZM42.8536 140.891C41.76 140.891 40.8198 140.556 40.0332 139.884C39.2657 139.213 38.882 138.263 38.882 137.035C38.882 135.922 39.2753 135.011 40.0619 134.301C40.8678 133.572 41.7983 133.207 42.8536 133.207C43.8705 133.207 44.7723 133.533 45.5589 134.186C46.3456 134.838 46.7389 135.788 46.7389 137.035C46.7389 138.244 46.3552 139.193 45.5877 139.884C44.8203 140.556 43.9089 140.891 42.8536 140.891ZM62.0212 148.892V149.842C63.4026 148.019 64.9088 146.686 66.5397 145.842C68.1897 144.978 70.0796 144.547 72.2093 144.547C74.2815 144.547 76.133 144.997 77.7639 145.899C79.3948 146.801 80.6131 148.077 81.419 149.727C81.937 150.686 82.2728 151.722 82.4263 152.835C82.5798 153.948 82.6565 155.368 82.6565 157.095V171.715C82.6565 173.288 82.292 174.478 81.5629 175.284C80.853 176.09 79.9224 176.492 78.7712 176.492C77.6008 176.492 76.6511 176.08 75.922 175.255C75.1929 174.43 74.8283 173.25 74.8283 171.715V158.62C74.8283 156.03 74.4638 154.054 73.7347 152.691C73.0248 151.31 71.5954 150.619 69.4465 150.619C68.0458 150.619 66.7699 151.041 65.6187 151.885C64.4675 152.71 63.6233 153.852 63.086 155.31C62.7023 156.481 62.5104 158.668 62.5104 161.872V171.715C62.5104 173.307 62.1363 174.507 61.388 175.312C60.6589 176.099 59.7092 176.492 58.5388 176.492C57.4068 176.492 56.4762 176.08 55.7471 175.255C55.018 174.43 54.6535 173.25 54.6535 171.715V149.007C54.6535 147.511 54.9796 146.398 55.632 145.669C56.2843 144.921 57.1765 144.547 58.3085 144.547C58.9993 144.547 59.6228 144.71 60.1793 145.036C60.7357 145.362 61.177 145.851 61.5031 146.504C61.8485 147.156 62.0212 147.952 62.0212 148.892ZM90.9452 145.237H91.8086V140.517C91.8086 139.251 91.8374 138.263 91.895 137.553C91.9717 136.824 92.1636 136.2 92.4706 135.682C92.7775 135.145 93.2188 134.713 93.7944 134.387C94.37 134.042 95.0128 133.869 95.7227 133.869C96.7204 133.869 97.6222 134.243 98.428 134.992C98.9653 135.49 99.301 136.104 99.4354 136.833C99.5888 137.543 99.6656 138.56 99.6656 139.884V145.237H102.544C103.656 145.237 104.501 145.506 105.076 146.043C105.671 146.561 105.968 147.233 105.968 148.058C105.968 149.113 105.546 149.852 104.702 150.274C103.877 150.696 102.688 150.907 101.133 150.907H99.6656V165.355C99.6656 166.582 99.704 167.532 99.7807 168.204C99.8766 168.856 100.107 169.393 100.471 169.815C100.855 170.218 101.469 170.42 102.313 170.42C102.774 170.42 103.397 170.343 104.184 170.19C104.971 170.017 105.585 169.931 106.026 169.931C106.659 169.931 107.225 170.19 107.724 170.708C108.242 171.207 108.501 171.83 108.501 172.578C108.501 173.845 107.81 174.814 106.429 175.485C105.047 176.157 103.062 176.492 100.471 176.492C98.0155 176.492 96.1544 176.08 94.8881 175.255C93.6218 174.43 92.7871 173.288 92.3842 171.83C92.0005 170.372 91.8086 168.424 91.8086 165.988V150.907H90.7725C89.6405 150.907 88.7771 150.638 88.1823 150.101C87.5875 149.564 87.2901 148.883 87.2901 148.058C87.2901 147.233 87.5971 146.561 88.2111 146.043C88.8443 145.506 89.7556 145.237 90.9452 145.237ZM140.821 160.519C140.821 162.86 140.457 165.019 139.728 166.995C138.998 168.971 137.943 170.669 136.562 172.089C135.18 173.509 133.53 174.603 131.612 175.37C129.693 176.118 127.534 176.492 125.136 176.492C122.757 176.492 120.618 176.109 118.718 175.341C116.819 174.574 115.168 173.48 113.768 172.06C112.386 170.621 111.331 168.933 110.602 166.995C109.892 165.038 109.537 162.879 109.537 160.519C109.537 158.14 109.902 155.963 110.631 153.986C111.36 152.01 112.406 150.322 113.768 148.921C115.13 147.52 116.78 146.446 118.718 145.698C120.656 144.93 122.795 144.547 125.136 144.547C127.515 144.547 129.674 144.93 131.612 145.698C133.549 146.465 135.209 147.559 136.59 148.979C137.972 150.398 139.018 152.087 139.728 154.044C140.457 156.001 140.821 158.16 140.821 160.519ZM132.935 160.519C132.935 157.315 132.226 154.821 130.806 153.037C129.405 151.252 127.515 150.36 125.136 150.36C123.601 150.36 122.248 150.763 121.078 151.569C119.908 152.356 119.006 153.526 118.373 155.08C117.74 156.634 117.423 158.447 117.423 160.519C117.423 162.572 117.73 164.366 118.344 165.901C118.977 167.436 119.869 168.616 121.02 169.441C122.191 170.247 123.563 170.65 125.136 170.65C127.515 170.65 129.405 169.758 130.806 167.974C132.226 166.17 132.935 163.685 132.935 160.519ZM167.443 172.06V171.053C166.503 172.243 165.515 173.24 164.478 174.046C163.442 174.852 162.31 175.447 161.082 175.831C159.854 176.233 158.454 176.435 156.88 176.435C154.981 176.435 153.273 176.042 151.758 175.255C150.261 174.468 149.1 173.384 148.275 172.003C147.297 170.334 146.807 167.935 146.807 164.808V149.238C146.807 147.664 147.162 146.494 147.872 145.726C148.582 144.94 149.522 144.547 150.693 144.547C151.882 144.547 152.842 144.94 153.571 145.726C154.3 146.513 154.664 147.684 154.664 149.238V161.815C154.664 163.637 154.818 165.172 155.125 166.419C155.432 167.647 155.979 168.616 156.765 169.326C157.571 170.017 158.655 170.362 160.018 170.362C161.341 170.362 162.589 169.969 163.759 169.182C164.929 168.396 165.783 167.369 166.32 166.103C166.762 164.99 166.982 162.553 166.982 158.793V149.238C166.982 147.684 167.347 146.513 168.076 145.726C168.805 144.94 169.755 144.547 170.925 144.547C172.096 144.547 173.036 144.94 173.746 145.726C174.456 146.494 174.811 147.664 174.811 149.238V172.003C174.811 173.499 174.465 174.622 173.774 175.37C173.103 176.118 172.23 176.492 171.155 176.492C170.081 176.492 169.189 176.109 168.479 175.341C167.788 174.555 167.443 173.461 167.443 172.06ZM210.843 166.765C210.843 167.743 210.546 168.789 209.951 169.902C209.375 171.015 208.483 172.079 207.275 173.096C206.085 174.094 204.579 174.9 202.756 175.514C200.933 176.128 198.88 176.435 196.597 176.435C191.743 176.435 187.953 175.025 185.229 172.204C182.504 169.365 181.142 165.566 181.142 160.807C181.142 157.584 181.766 154.735 183.013 152.26C184.26 149.784 186.064 147.875 188.424 146.532C190.783 145.17 193.604 144.489 196.885 144.489C198.919 144.489 200.78 144.786 202.468 145.381C204.176 145.976 205.615 146.743 206.785 147.684C207.975 148.624 208.877 149.631 209.491 150.705C210.124 151.761 210.44 152.749 210.44 153.67C210.44 154.61 210.085 155.406 209.375 156.059C208.685 156.711 207.841 157.037 206.843 157.037C206.19 157.037 205.644 156.874 205.202 156.548C204.78 156.202 204.301 155.656 203.763 154.907C202.804 153.449 201.797 152.356 200.741 151.626C199.705 150.897 198.381 150.533 196.77 150.533C194.448 150.533 192.577 151.444 191.158 153.267C189.738 155.07 189.028 157.546 189.028 160.692C189.028 162.17 189.21 163.532 189.575 164.779C189.939 166.007 190.467 167.062 191.158 167.945C191.848 168.808 192.683 169.47 193.662 169.931C194.64 170.372 195.714 170.593 196.885 170.593C198.458 170.593 199.801 170.228 200.914 169.499C202.046 168.77 203.044 167.657 203.907 166.16C204.387 165.278 204.905 164.587 205.461 164.088C206.018 163.589 206.699 163.34 207.505 163.34C208.464 163.34 209.26 163.704 209.893 164.434C210.527 165.163 210.843 165.94 210.843 166.765ZM223.909 137.639V149.295C224.907 148.144 225.876 147.233 226.816 146.561C227.776 145.89 228.831 145.391 229.982 145.065C231.133 144.719 232.371 144.547 233.695 144.547C235.69 144.547 237.455 144.969 238.99 145.813C240.544 146.657 241.763 147.885 242.645 149.497C243.202 150.437 243.576 151.492 243.768 152.663C243.96 153.814 244.056 155.147 244.056 156.663V171.715C244.056 173.288 243.691 174.478 242.962 175.284C242.252 176.09 241.302 176.492 240.113 176.492C237.522 176.492 236.227 174.9 236.227 171.715V158.447C236.227 155.934 235.853 154.006 235.105 152.663C234.357 151.3 232.937 150.619 230.845 150.619C229.445 150.619 228.178 151.022 227.046 151.828C225.934 152.615 225.099 153.699 224.543 155.08C224.12 156.25 223.909 158.332 223.909 161.325V171.715C223.909 173.269 223.554 174.459 222.845 175.284C222.154 176.09 221.185 176.492 219.938 176.492C217.348 176.492 216.052 174.9 216.052 171.715V137.639C216.052 136.047 216.388 134.857 217.06 134.071C217.75 133.265 218.71 132.862 219.938 132.862C221.185 132.862 222.154 133.265 222.845 134.071C223.554 134.876 223.909 136.066 223.909 137.639Z" fill="#3784F9"/>
<path d="M140.798 34.5587C148.29 35.3463 153.373 42.6098 151.322 49.7859C151.322 49.8734 151.322 49.8734 151.233 49.9609L151.144 50.1359C149.092 57.3995 141.868 61.9502 134.288 60.8125C128.58 59.9374 122.248 59.9374 116.897 62.6503C112.259 65.0131 109.762 69.9138 114.667 76.4773C119.84 83.3908 126.885 87.2414 130.72 95.205C134.912 103.694 129.918 116.471 121.624 118.308C126.261 107.807 124.923 102.556 115.024 98.0054C91.2115 86.9788 81.6688 64.138 98.4355 45.9353C108.335 36.2214 121.98 33.5085 135.447 34.2086C136.696 34.1211 138.569 34.2961 140.798 34.5587Z" fill="#3784F9"/>
<path d="M114.756 76.3892C119.929 83.3027 126.974 87.1532 130.809 95.1169C135.001 103.606 130.007 116.383 121.712 118.22C121.712 118.22 129.293 112.444 127.688 101.768C126.082 91.1788 99.1486 82.165 101.913 63.3498C104.678 44.5345 132.86 45.4972 151.322 49.9603C151.322 50.0478 151.322 50.1353 151.232 50.1353C149.181 57.3989 141.957 61.9496 134.377 60.8119C128.669 59.9368 122.337 59.9368 116.986 62.6497C112.348 64.925 109.851 69.8257 114.756 76.3892Z" fill="url(#paint0_linear_719_461)"/>
<path d="M148.466 0.427092C156.404 1.21471 161.755 8.82832 159.703 16.3544L159.614 16.5294C159.614 16.617 159.614 16.7045 159.525 16.7045C157.563 23.968 150.339 28.6062 142.848 27.556C120.016 24.2306 101.02 30.8815 89.2475 47.2464C89.1584 46.9839 89.1584 46.7213 89.0692 46.4588C80.8642 10.5786 118.411 -2.63585 148.466 0.427092Z" fill="url(#paint1_linear_719_461)"/>
<path d="M159.613 16.3545L159.524 16.5295C110.562 6.02798 92.8138 26.5935 88.9788 46.3714C80.863 10.5786 118.41 -2.63579 148.465 0.427161C156.402 1.21478 161.754 8.82839 159.613 16.3545Z" fill="#3784F9"/>
<defs>
<linearGradient id="paint0_linear_719_461" x1="129.263" y1="44.0865" x2="114.875" y2="112.678" gradientUnits="userSpaceOnUse">
<stop stop-color="#2B62C2"/>
<stop offset="1" stop-color="#69B5F5"/>
</linearGradient>
<linearGradient id="paint1_linear_719_461" x1="125.549" y1="11.6449" x2="121.895" y2="42.4231" gradientUnits="userSpaceOnUse">
<stop stop-color="#2B62C2"/>
<stop offset="1" stop-color="#69B5F5"/>
</linearGradient>
</defs>
</svg>
